<svg xmlns="http://www.w3.org/2000/svg" width="800" height="500" viewBox="0 0 800 500">
  <rect width="800" height="500" fill="#E8E8E8"/>
  <!-- browser chrome -->
  <rect x="0" y="0" width="800" height="36" fill="#D0D0D0"/>
  <circle cx="20" cy="18" r="7" fill="#F08080"/>
  <circle cx="40" cy="18" r="7" fill="#F0D080"/>
  <circle cx="60" cy="18" r="7" fill="#80D080"/>
  <rect x="80" y="10" width="640" height="16" rx="8" fill="#BFBFBF"/>
  <!-- hero -->
  <rect x="0" y="36" width="800" height="180" fill="#C8C8C8"/>
  <text x="400" y="134" font-family="sans-serif" font-size="18" fill="#888" text-anchor="middle">hero image</text>
  <!-- content blocks -->
  <rect x="40" y="240" width="220" height="16" rx="4" fill="#BFBFBF"/>
  <rect x="40" y="268" width="520" height="10" rx="4" fill="#D0D0D0"/>
  <rect x="40" y="288" width="460" height="10" rx="4" fill="#D0D0D0"/>
  <rect x="40" y="308" width="500" height="10" rx="4" fill="#D0D0D0"/>
  <!-- image placeholder -->
  <rect x="540" y="240" width="220" height="140" rx="4" fill="#C8C8C8"/>
  <text x="650" y="316" font-family="sans-serif" font-size="13" fill="#888" text-anchor="middle">image</text>
  <!-- footer -->
  <rect x="0" y="460" width="800" height="40" fill="#C0C0C0"/>
  <text x="400" y="485" font-family="sans-serif" font-size="12" fill="#888" text-anchor="middle">works mockup — replace with actual screenshot</text>
</svg>
